<svg id="eme80RlWpH21" xmlns="http://www.w3.org/2000/svg" xmlns:xlink="http://www.w3.org/1999/xlink" viewBox="0 0 1300 800" shape-rendering="geometricPrecision" text-rendering="geometricPrecision" width="1300" height="800">
<style><![CDATA[
#eme80RlWpH26_ts {animation: eme80RlWpH26_ts__ts 4000ms linear infinite normal forwards}@keyframes eme80RlWpH26_ts__ts { 0% {transform: translate(1423px,1054.5px) scale(1,1)} 1.25% {transform: translate(1423px,1054.5px) scale(1,1);animation-timing-function: cubic-bezier(0.42,0,0.58,1)} 50% {transform: translate(1423px,1054.5px) scale(1.178274,1.178274);animation-timing-function: cubic-bezier(0.42,0,0.58,1)} 97.5% {transform: translate(1423px,1054.5px) scale(1,1)} 100% {transform: translate(1423px,1054.5px) scale(1,1)}} #eme80RlWpH27_ts {animation: eme80RlWpH27_ts__ts 4000ms linear infinite normal forwards}@keyframes eme80RlWpH27_ts__ts { 0% {transform: translate(1423.000122px,1054.500122px) scale(1,1)} 2.5% {transform: translate(1423.000122px,1054.500122px) scale(1,1);animation-timing-function: cubic-bezier(0.42,0,0.58,1)} 51.25% {transform: translate(1423.000122px,1054.500122px) scale(1.178274,1.178274);animation-timing-function: cubic-bezier(0.42,0,0.58,1)} 98.75% {transform: translate(1423.000122px,1054.500122px) scale(1,1)} 100% {transform: translate(1423.000122px,1054.500122px) scale(1,1)}} #eme80RlWpH28_ts {animation: eme80RlWpH28_ts__ts 4000ms linear infinite normal forwards}@keyframes eme80RlWpH28_ts__ts { 0% {transform: translate(1422.999939px,1054.499939px) scale(1,1)} 3.75% {transform: translate(1422.999939px,1054.499939px) scale(1,1);animation-timing-function: cubic-bezier(0.42,0,0.58,1)} 52.5% {transform: translate(1422.999939px,1054.499939px) scale(1.178274,1.178274);animation-timing-function: cubic-bezier(0.42,0,0.58,1)} 100% {transform: translate(1422.999939px,1054.499939px) scale(1,1)}} #eme80RlWpH29_ts {animation: eme80RlWpH29_ts__ts 4000ms linear infinite normal forwards}@keyframes eme80RlWpH29_ts__ts { 0% {transform: translate(1423px,1054.5px) scale(1,1);animation-timing-function: cubic-bezier(0.42,0,0.58,1)} 48.75% {transform: translate(1423px,1054.5px) scale(1.178274,1.178274);animation-timing-function: cubic-bezier(0.42,0,0.58,1)} 96.25% {transform: translate(1423px,1054.5px) scale(1,1)} 100% {transform: translate(1423px,1054.5px) scale(1,1)}} #eme80RlWpH253_ts {animation: eme80RlWpH253_ts__ts 4000ms linear infinite normal forwards}@keyframes eme80RlWpH253_ts__ts { 0% {transform: translate(302.387596px,234.251274px) scale(0.65,0.65);animation-timing-function: cubic-bezier(0.175,0.885,0.32,1.275)} 25% {transform: translate(302.387596px,234.251274px) scale(1,1)} 90% {transform: translate(302.387596px,234.251274px) scale(1,1);animation-timing-function: cubic-bezier(0.68,-0.55,0.265,1.55)} 100% {transform: translate(302.387596px,234.251274px) scale(0.65,0.65)}} #eme80RlWpH256_tr {animation: eme80RlWpH256_tr__tr 4000ms linear infinite normal forwards}@keyframes eme80RlWpH256_tr__tr { 0% {transform: translate(331.399262px,226.385874px) rotate(0deg)} 5% {transform: translate(331.399262px,226.385874px) rotate(8.349002deg)} 12.5% {transform: translate(331.399262px,226.385874px) rotate(0deg)} 17.5% {transform: translate(331.399262px,226.385874px) rotate(8.349002deg)} 25% {transform: translate(331.399262px,226.385874px) rotate(0deg)} 37.5% {transform: translate(331.399262px,226.385874px) rotate(8.349002deg)} 52.5% {transform: translate(331.399262px,226.385874px) rotate(-4.130116deg)} 67.5% {transform: translate(331.399262px,226.385874px) rotate(6.13516deg);animation-timing-function: cubic-bezier(0.39,0.575,0.565,1)} 80% {transform: translate(331.399262px,226.385874px) rotate(-4.130116deg)} 85% {transform: translate(331.399262px,226.385874px) rotate(8.349002deg)} 90% {transform: translate(331.399262px,226.385874px) rotate(-4.130116deg)} 95% {transform: translate(331.399262px,226.385874px) rotate(8.349002deg)} 100% {transform: translate(331.399262px,226.385874px) rotate(0deg)}} #eme80RlWpH257_tr {animation: eme80RlWpH257_tr__tr 4000ms linear infinite normal forwards}@keyframes eme80RlWpH257_tr__tr { 0% {transform: translate(330.162997px,222.471037px) rotate(0deg)} 5% {transform: translate(330.162997px,222.471037px) rotate(16.009602deg)} 12.5% {transform: translate(330.162997px,222.471037px) rotate(0deg)} 17.5% {transform: translate(330.162997px,222.471037px) rotate(16.009602deg)} 25% {transform: translate(330.162997px,222.471037px) rotate(0deg)} 37.5% {transform: translate(330.162997px,222.471037px) rotate(16.009602deg)} 52.5% {transform: translate(330.162997px,222.471037px) rotate(0deg)} 67.5% {transform: translate(330.162997px,222.471037px) rotate(12.389701deg);animation-timing-function: cubic-bezier(0.39,0.575,0.565,1)} 80% {transform: translate(330.162997px,222.471037px) rotate(0deg)} 85% {transform: translate(330.162997px,222.471037px) rotate(16.009602deg)} 90% {transform: translate(330.162997px,222.471037px) rotate(0deg)} 95% {transform: translate(330.162997px,222.471037px) rotate(16.009602deg)} 100% {transform: translate(330.162997px,222.471037px) rotate(0deg)}} #eme80RlWpH258_tr {animation: eme80RlWpH258_tr__tr 4000ms linear infinite normal forwards}@keyframes eme80RlWpH258_tr__tr { 0% {transform: translate(326.995069px,218.324399px) rotate(0deg)} 5% {transform: translate(326.995069px,218.324399px) rotate(21.846117deg)} 12.5% {transform: translate(326.995069px,218.324399px) rotate(0deg)} 17.5% {transform: translate(326.995069px,218.324399px) rotate(21.846117deg)} 25% {transform: translate(326.995069px,218.324399px) rotate(0deg)} 37.5% {transform: translate(326.995069px,218.324399px) rotate(21.846117deg)} 52.5% {transform: translate(326.995069px,218.324399px) rotate(0deg)} 67.5% {transform: translate(326.995069px,218.324399px) rotate(16.407214deg);animation-timing-function: cubic-bezier(0.39,0.575,0.565,1)} 80% {transform: translate(326.995069px,218.324399px) rotate(0deg)} 85% {transform: translate(326.995069px,218.324399px) rotate(21.846117deg)} 90% {transform: translate(326.995069px,218.324399px) rotate(0deg)} 95% {transform: translate(326.995069px,218.324399px) rotate(21.846117deg)} 100% {transform: translate(326.995069px,218.324399px) rotate(0deg)}} #eme80RlWpH259_tr {animation: eme80RlWpH259_tr__tr 4000ms linear infinite normal forwards}@keyframes eme80RlWpH259_tr__tr { 0% {transform: translate(349.966333px,220.737874px) rotate(-15.468541deg)} 10% {transform: translate(349.966333px,220.737874px) rotate(-15.468541deg);animation-timing-function: cubic-bezier(0.175,0.885,0.32,1.275)} 42.5% {transform: translate(349.966333px,220.737874px) rotate(0deg)} 90% {transform: translate(349.966333px,220.737874px) rotate(0deg);animation-timing-function: cubic-bezier(0.68,-0.55,0.265,1.55)} 100% {transform: translate(349.966333px,220.737874px) rotate(-15.468541deg)}} #eme80RlWpH261_to {animation: eme80RlWpH261_to__to 4000ms linear infinite normal forwards}@keyframes eme80RlWpH261_to__to { 0% {transform: translate(348.654347px,224.664516px)} 10% {transform: translate(348.654347px,224.664516px)} 20% {transform: translate(345.208743px,224.395507px)} 30% {transform: translate(348.654347px,224.664516px)} 100% {transform: translate(348.654347px,224.664516px)}} #eme80RlWpH261_tr {animation: eme80RlWpH261_tr__tr 4000ms linear infinite normal forwards}@keyframes eme80RlWpH261_tr__tr { 0% {transform: rotate(0deg)} 10% {transform: rotate(0deg)} 20% {transform: rotate(15.044344deg)} 30% {transform: rotate(0deg)} 100% {transform: rotate(0deg)}} #eme80RlWpH264 {animation: eme80RlWpH264__m 4000ms linear infinite normal forwards}@keyframes eme80RlWpH264__m { 0% {d: path('M83.587,43.768C83.587,48.419,76.564,48.409,76.564,43.768C76.596339,41.851752,78.158979,40.31526,80.0755,40.31526C81.992021,40.31526,83.554661,41.851752,83.587,43.768Z')} 40% {d: path('M83.587,43.768C83.587,48.419,76.564,48.409,76.564,43.768C76.596339,41.851752,78.158979,40.31526,80.0755,40.31526C81.992021,40.31526,83.554661,41.851752,83.587,43.768Z');animation-timing-function: cubic-bezier(0.23,1,0.32,1)} 52.5% {d: path('M83.587,43.768C83.587,48.419,76.564,48.409,76.564,43.768C76.596339,41.851752,76.344379,46.583984,80.017223,46.801892C83.690067,47.0198,83.554661,41.851752,83.587,43.768Z');animation-timing-function: cubic-bezier(0.755,0.05,0.855,0.06)} 65% {d: path('M83.587,43.768C83.587,48.419,76.564,48.409,76.564,43.768C76.596339,41.851752,78.158979,40.31526,80.0755,40.31526C81.992021,40.31526,83.554661,41.851752,83.587,43.768Z')} 100% {d: path('M83.587,43.768C83.587,48.419,76.564,48.409,76.564,43.768C76.596339,41.851752,78.158979,40.31526,80.0755,40.31526C81.992021,40.31526,83.554661,41.851752,83.587,43.768Z')}} #eme80RlWpH265_tr {animation: eme80RlWpH265_tr__tr 4000ms linear infinite normal forwards}@keyframes eme80RlWpH265_tr__tr { 0% {transform: translate(243.253967px,299.297643px) rotate(25.425032deg);animation-timing-function: cubic-bezier(0.6,-0.28,0.735,0.045)} 25% {transform: translate(243.253967px,299.297643px) rotate(0deg)} 37.5% {transform: translate(243.253967px,299.297643px) rotate(13.478825deg)} 52.5% {transform: translate(243.253967px,299.297643px) rotate(0deg)} 67.5% {transform: translate(243.253967px,299.297643px) rotate(13.478825deg);animation-timing-function: cubic-bezier(0.39,0.575,0.565,1)} 80% {transform: translate(243.253967px,299.297643px) rotate(13.478825deg);animation-timing-function: cubic-bezier(0.39,0.575,0.565,1)} 85% {transform: translate(243.253967px,299.297643px) rotate(0deg)} 90% {transform: translate(243.253967px,299.297643px) rotate(13.478825deg)} 95% {transform: translate(243.253967px,299.297643px) rotate(13.478825deg);animation-timing-function: cubic-bezier(0.39,0.575,0.565,1)} 100% {transform: translate(243.253967px,299.297643px) rotate(25.425032deg)}} #eme80RlWpH268_to {animation: eme80RlWpH268_to__to 4000ms linear infinite normal forwards}@keyframes eme80RlWpH268_to__to { 0% {transform: translate(149.385269px,234.668442px);animation-timing-function: cubic-bezier(0.6,-0.28,0.735,0.045)} 8.5% {transform: translate(149.385269px,249.352838px)} 16% {transform: translate(149.385269px,234.668442px)} 100% {transform: translate(149.385269px,234.668442px)}} #eme80RlWpH269_to {animation: eme80RlWpH269_to__to 4000ms linear infinite normal forwards}@keyframes eme80RlWpH269_to__to { 0% {transform: translate(203.645004px,233.480003px)} 3.5% {transform: translate(203.645004px,233.480003px);animation-timing-function: cubic-bezier(0.6,-0.28,0.735,0.045)} 12% {transform: translate(203.643421px,248.150829px)} 19.5% {transform: translate(203.645004px,233.480003px)} 100% {transform: translate(203.645004px,233.480003px)}} #eme80RlWpH270_to {animation: eme80RlWpH270_to__to 4000ms linear infinite normal forwards}@keyframes eme80RlWpH270_to__to { 0% {transform: translate(271.274963px,234.687981px)} 7% {transform: translate(271.274963px,234.687981px);animation-timing-function: cubic-bezier(0.6,-0.28,0.735,0.045)} 15.5% {transform: translate(271.274963px,249.38161px)} 23% {transform: translate(271.274963px,234.687981px)} 100% {transform: translate(271.274963px,234.687981px)}} #eme80RlWpH271_to {animation: eme80RlWpH271_to__to 4000ms linear infinite normal forwards}@keyframes eme80RlWpH271_to__to { 0% {transform: translate(335.62999px,234.688072px)} 10.5% {transform: translate(335.62999px,234.688072px);animation-timing-function: cubic-bezier(0.6,-0.28,0.735,0.045)} 19% {transform: translate(335.547307px,249.345896px)} 26.5% {transform: translate(335.62999px,234.688072px)} 100% {transform: translate(335.62999px,234.688072px)}} #eme80RlWpH272_to {animation: eme80RlWpH272_to__to 4000ms linear infinite normal forwards}@keyframes eme80RlWpH272_to__to { 0% {transform: translate(401.865189px,234.655281px)} 14% {transform: translate(401.865189px,234.655281px);animation-timing-function: cubic-bezier(0.6,-0.28,0.735,0.045)} 22.5% {transform: translate(402.06761px,249.027128px)} 30% {transform: translate(401.865189px,234.655281px)} 100% {transform: translate(401.865189px,234.655281px)}} #eme80RlWpH273_to {animation: eme80RlWpH273_to__to 4000ms linear infinite normal forwards}@keyframes eme80RlWpH273_to__to { 0% {transform: translate(466.85498px,234.650002px)} 17.5% {transform: translate(466.85498px,234.650002px);animation-timing-function: cubic-bezier(0.6,-0.28,0.735,0.045)} 26% {transform: translate(466.85498px,249.224269px)} 33.5% {transform: translate(466.85498px,234.650002px)} 100% {transform: translate(466.85498px,234.650002px)}} #eme80RlWpH290_to {animation: eme80RlWpH290_to__to 4000ms linear infinite normal forwards}@keyframes eme80RlWpH290_to__to { 0% {transform: translate(22.968363px,292.993303px)} 35% {transform: translate(22.968363px,292.993303px);animation-timing-function: cubic-bezier(0.445,0.05,0.55,0.95)} 50% {transform: translate(296.542943px,294.006543px)} 90% {transform: translate(296.542943px,294.006543px);animation-timing-function: cubic-bezier(0.445,0.05,0.55,0.95)} 100% {transform: translate(568.092344px,294.006543px)}}
]]></style>
<defs><radialGradient id="eme80RlWpH22-fill" cx="0" cy="0" r="2205.2081" spreadMethod="pad" gradientUnits="userSpaceOnUse" gradientTransform="matrix(1 0 0 0.4543 631.5532 -129.977469)"><stop id="eme80RlWpH22-fill-0" offset="0%" stop-color="#7bc9ff"/><stop id="eme80RlWpH22-fill-1" offset="35.41%" stop-color="#f2faff"/><stop id="eme80RlWpH22-fill-2" offset="55.81%" stop-color="#fff"/><stop id="eme80RlWpH22-fill-3" offset="66.86%" stop-color="#f8fcff"/><stop id="eme80RlWpH22-fill-4" offset="82.68%" stop-color="#e5f4ff"/><stop id="eme80RlWpH22-fill-5" offset="94.31%" stop-color="#d3edff"/></radialGradient><radialGradient id="eme80RlWpH23-fill" cx="0" cy="0" r="775.2206" spreadMethod="pad" gradientUnits="userSpaceOnUse" gradientTransform="matrix(1 0 0 1.0161 633.7927 422.394781)"><stop id="eme80RlWpH23-fill-0" offset="35.41%" stop-color="#f2faff"/><stop id="eme80RlWpH23-fill-1" offset="55.81%" stop-color="#f2faff"/><stop id="eme80RlWpH23-fill-2" offset="69.77%" stop-color="#ebf7ff"/><stop id="eme80RlWpH23-fill-3" offset="89.76%" stop-color="#d8efff"/><stop id="eme80RlWpH23-fill-4" offset="94.31%" stop-color="#d3edff"/></radialGradient><radialGradient id="eme80RlWpH26-fill" cx="0" cy="0" r="1289.5164" spreadMethod="pad" gradientUnits="userSpaceOnUse" gradientTransform="translate(0 0)"><stop id="eme80RlWpH26-fill-0" offset="82.8%" stop-color="#fff"/><stop id="eme80RlWpH26-fill-1" offset="86.11%" stop-color="#f8fcff"/><stop id="eme80RlWpH26-fill-2" offset="90.84%" stop-color="#e5f4ff"/><stop id="eme80RlWpH26-fill-3" offset="94.31%" stop-color="#d3edff"/></radialGradient><radialGradient id="eme80RlWpH27-fill" cx="0" cy="0" r="1050.2704" spreadMethod="pad" gradientUnits="userSpaceOnUse" gradientTransform="translate(0 0)"><stop id="eme80RlWpH27-fill-0" offset="82.8%" stop-color="#fff"/><stop id="eme80RlWpH27-fill-1" offset="86.11%" stop-color="#f8fcff"/><stop id="eme80RlWpH27-fill-2" offset="90.84%" stop-color="#e5f4ff"/><stop id="eme80RlWpH27-fill-3" offset="94.31%" stop-color="#d3edff"/></radialGradient><radialGradient id="eme80RlWpH28-fill" cx="0" cy="0" r="832.2635" spreadMethod="pad" gradientUnits="userSpaceOnUse" gradientTransform="translate(0 0)"><stop id="eme80RlWpH28-fill-0" offset="82.8%" stop-color="#fff"/><stop id="eme80RlWpH28-fill-1" offset="86.11%" stop-color="#f8fcff"/><stop id="eme80RlWpH28-fill-2" offset="90.84%" stop-color="#e5f4ff"/><stop id="eme80RlWpH28-fill-3" offset="94.31%" stop-color="#d3edff"/></radialGradient><radialGradient id="eme80RlWpH29-fill" cx="0" cy="0" r="619.2549" spreadMethod="pad" gradientUnits="userSpaceOnUse" gradientTransform="translate(0 0)"><stop id="eme80RlWpH29-fill-0" offset="82.8%" stop-color="#fff"/><stop id="eme80RlWpH29-fill-1" offset="86.11%" stop-color="#f8fcff"/><stop id="eme80RlWpH29-fill-2" offset="90.84%" stop-color="#e5f4ff"/><stop id="eme80RlWpH29-fill-3" offset="94.31%" stop-color="#d3edff"/></radialGradient><filter id="eme80RlWpH212-filter" x="-150%" width="400%" y="-150%" height="400%"><feGaussianBlur id="eme80RlWpH212-filter-drop-shadow-0-blur" in="SourceAlpha" stdDeviation="16,16"/><feOffset id="eme80RlWpH212-filter-drop-shadow-0-offset" dx="8" dy="8" result="tmp"/><feFlood id="eme80RlWpH212-filter-drop-shadow-0-flood" flood-color="#dfedf6"/><feComposite id="eme80RlWpH212-filter-drop-shadow-0-composite" operator="in" in2="tmp"/><feMerge id="eme80RlWpH212-filter-drop-shadow-0-merge" result="result"><feMergeNode id="eme80RlWpH212-filter-drop-shadow-0-merge-node-1"/><feMergeNode id="eme80RlWpH212-filter-drop-shadow-0-merge-node-2" in="SourceGraphic"/></feMerge></filter><filter id="eme80RlWpH213-filter" x="-150%" width="400%" y="-150%" height="400%"><feGaussianBlur id="eme80RlWpH213-filter-drop-shadow-0-blur" in="SourceAlpha" stdDeviation="16,16"/><feOffset id="eme80RlWpH213-filter-drop-shadow-0-offset" dx="8" dy="8" result="tmp"/><feFlood id="eme80RlWpH213-filter-drop-shadow-0-flood" flood-color="#dfedf6"/><feComposite id="eme80RlWpH213-filter-drop-shadow-0-composite" operator="in" in2="tmp"/><feMerge id="eme80RlWpH213-filter-drop-shadow-0-merge" result="result"><feMergeNode id="eme80RlWpH213-filter-drop-shadow-0-merge-node-1"/><feMergeNode id="eme80RlWpH213-filter-drop-shadow-0-merge-node-2" in="SourceGraphic"/></feMerge></filter><linearGradient id="eme80RlWpH218-fill" x1="240.271632" y1="309.009212" x2="357.138883" y2="162.707706" spreadMethod="pad" gradientUnits="userSpaceOnUse" gradientTransform="translate(0 0)"><stop id="eme80RlWpH218-fill-0" offset="1%" stop-color="#df1d57"/><stop id="eme80RlWpH218-fill-1" offset="67.8492%" stop-color="#881b8a"/><stop id="eme80RlWpH218-fill-2" offset="100%" stop-color="#771b94"/></linearGradient><linearGradient id="eme80RlWpH220-fill" x1="335.55" y1="243.09" x2="181.45" y2="250.85" spreadMethod="pad" gradientUnits="userSpaceOnUse" gradientTransform="translate(0 0)"><stop id="eme80RlWpH220-fill-0" offset="1%" stop-color="#4b2792"/><stop id="eme80RlWpH220-fill-1" offset="52%" stop-color="#652196"/><stop id="eme80RlWpH220-fill-2" offset="100%" stop-color="#781c99"/></linearGradient><linearGradient id="eme80RlWpH221-fill" x1="327.990476" y1="243.474259" x2="142.06523" y2="188.143338" spreadMethod="pad" gradientUnits="userSpaceOnUse" gradientTransform="translate(0 0)"><stop id="eme80RlWpH221-fill-0" offset="0%" stop-color="#4b2792"/><stop id="eme80RlWpH221-fill-1" offset="29%" stop-color="#4f2693"/><stop id="eme80RlWpH221-fill-2" offset="60%" stop-color="#5d2395"/><stop id="eme80RlWpH221-fill-3" offset="93%" stop-color="#721d98"/><stop id="eme80RlWpH221-fill-4" offset="100%" stop-color="#781c99"/></linearGradient><linearGradient id="eme80RlWpH222-fill" x1="325.51" y1="239.5" x2="204.63" y2="152.98" spreadMethod="pad" gradientUnits="userSpaceOnUse" gradientTransform="translate(0 0)"><stop id="eme80RlWpH222-fill-0" offset="1%" stop-color="#4b2792"/><stop id="eme80RlWpH222-fill-1" offset="35%" stop-color="#612295"/><stop id="eme80RlWpH222-fill-2" offset="72%" stop-color="#721d98"/><stop id="eme80RlWpH222-fill-3" offset="100%" stop-color="#781c99"/></linearGradient><linearGradient id="eme80RlWpH224-fill" x1="341.38" y1="145.83" x2="413.1" y2="181.24" spreadMethod="pad" gradientUnits="userSpaceOnUse" gradientTransform="translate(0 0)"><stop id="eme80RlWpH224-fill-0" offset="0%" stop-color="#f44403"/><stop id="eme80RlWpH224-fill-1" offset="0%" stop-color="#f44503"/><stop id="eme80RlWpH224-fill-2" offset="31%" stop-color="#f96e03"/><stop id="eme80RlWpH224-fill-3" offset="59%" stop-color="#fc8c02"/><stop id="eme80RlWpH224-fill-4" offset="83%" stop-color="#fe9e02"/><stop id="eme80RlWpH224-fill-5" offset="100%" stop-color="#ffa502"/></linearGradient><linearGradient id="eme80RlWpH225-fill" x1="357.08" y1="221.33" x2="376.25" y2="177.6" spreadMethod="pad" gradientUnits="userSpaceOnUse" gradientTransform="translate(0 0)"><stop id="eme80RlWpH225-fill-0" offset="0%" stop-color="#ffa502"/><stop id="eme80RlWpH225-fill-1" offset="90%" stop-color="#f54e03"/><stop id="eme80RlWpH225-fill-2" offset="100%" stop-color="#f44403"/></linearGradient><linearGradient id="eme80RlWpH226-fill" x1="302.71" y1="132.41" x2="356.4" y2="206.73" spreadMethod="pad" gradientUnits="userSpaceOnUse" gradientTransform="translate(0 0)"><stop id="eme80RlWpH226-fill-0" offset="1%" stop-color="#df1d57"/><stop id="eme80RlWpH226-fill-1" offset="20%" stop-color="#db1d59"/><stop id="eme80RlWpH226-fill-2" offset="39%" stop-color="#cf1d61"/><stop id="eme80RlWpH226-fill-3" offset="59%" stop-color="#ba1c6d"/><stop id="eme80RlWpH226-fill-4" offset="79%" stop-color="#9e1c7d"/><stop id="eme80RlWpH226-fill-5" offset="99%" stop-color="#791b93"/><stop id="eme80RlWpH226-fill-6" offset="100%" stop-color="#771b94"/></linearGradient><linearGradient id="eme80RlWpH227-fill" x1="314.79" y1="172.87" x2="390.03" y2="203.02" spreadMethod="pad" gradientUnits="userSpaceOnUse" gradientTransform="translate(0 0)"><stop id="eme80RlWpH227-fill-0" offset="0%" stop-color="#f2f2f2"/><stop id="eme80RlWpH227-fill-1" offset="21%" stop-color="#f2f0ef"/><stop id="eme80RlWpH227-fill-2" offset="36%" stop-color="#f1eae6"/><stop id="eme80RlWpH227-fill-3" offset="48%" stop-color="#efe0d7"/><stop id="eme80RlWpH227-fill-4" offset="58%" stop-color="#ecd1c2"/><stop id="eme80RlWpH227-fill-5" offset="69%" stop-color="#e9bea7"/><stop id="eme80RlWpH227-fill-6" offset="78%" stop-color="#e5a785"/><stop id="eme80RlWpH227-fill-7" offset="87%" stop-color="#e08c5d"/><stop id="eme80RlWpH227-fill-8" offset="96%" stop-color="#da6d2f"/><stop id="eme80RlWpH227-fill-9" offset="100%" stop-color="#d75b15"/></linearGradient><linearGradient id="eme80RlWpH229-fill" x1="241.157162" y1="306.337393" x2="210.486857" y2="352.84069" spreadMethod="pad" gradientUnits="userSpaceOnUse" gradientTransform="translate(0 0)"><stop id="eme80RlWpH229-fill-0" offset="0%" stop-color="#df1d57"/><stop id="eme80RlWpH229-fill-1" offset="18%" stop-color="#da1d5a"/><stop id="eme80RlWpH229-fill-2" offset="38%" stop-color="#cc1d62"/><stop id="eme80RlWpH229-fill-3" offset="60%" stop-color="#b51c70"/><stop id="eme80RlWpH229-fill-4" offset="83%" stop-color="#941c83"/><stop id="eme80RlWpH229-fill-5" offset="100%" stop-color="#771b94"/></linearGradient><linearGradient id="eme80RlWpH254-fill" x1="240.271632" y1="309.009212" x2="357.138883" y2="162.707706" spreadMethod="pad" gradientUnits="userSpaceOnUse" gradientTransform="translate(0 0)"><stop id="eme80RlWpH254-fill-0" offset="1%" stop-color="#df1d57"/><stop id="eme80RlWpH254-fill-1" offset="67.8492%" stop-color="#881b8a"/><stop id="eme80RlWpH254-fill-2" offset="100%" stop-color="#771b94"/></linearGradient><linearGradient id="eme80RlWpH256-fill" x1="335.55" y1="243.09" x2="181.45" y2="250.85" spreadMethod="pad" gradientUnits="userSpaceOnUse" gradientTransform="translate(0 0)"><stop id="eme80RlWpH256-fill-0" offset="1%" stop-color="#4b2792"/><stop id="eme80RlWpH256-fill-1" offset="52%" stop-color="#652196"/><stop id="eme80RlWpH256-fill-2" offset="100%" stop-color="#781c99"/></linearGradient><linearGradient id="eme80RlWpH257-fill" x1="327.990476" y1="243.474259" x2="142.06523" y2="188.143338" spreadMethod="pad" gradientUnits="userSpaceOnUse" gradientTransform="translate(0 0)"><stop id="eme80RlWpH257-fill-0" offset="0%" stop-color="#4b2792"/><stop id="eme80RlWpH257-fill-1" offset="29%" stop-color="#4f2693"/><stop id="eme80RlWpH257-fill-2" offset="60%" stop-color="#5d2395"/><stop id="eme80RlWpH257-fill-3" offset="93%" stop-color="#721d98"/><stop id="eme80RlWpH257-fill-4" offset="100%" stop-color="#781c99"/></linearGradient><linearGradient id="eme80RlWpH258-fill" x1="325.51" y1="239.5" x2="204.63" y2="152.98" spreadMethod="pad" gradientUnits="userSpaceOnUse" gradientTransform="translate(0 0)"><stop id="eme80RlWpH258-fill-0" offset="1%" stop-color="#4b2792"/><stop id="eme80RlWpH258-fill-1" offset="35%" stop-color="#612295"/><stop id="eme80RlWpH258-fill-2" offset="72%" stop-color="#721d98"/><stop id="eme80RlWpH258-fill-3" offset="100%" stop-color="#781c99"/></linearGradient><linearGradient id="eme80RlWpH260-fill" x1="341.38" y1="145.83" x2="413.1" y2="181.24" spreadMethod="pad" gradientUnits="userSpaceOnUse" gradientTransform="translate(0 0)"><stop id="eme80RlWpH260-fill-0" offset="0%" stop-color="#f44403"/><stop id="eme80RlWpH260-fill-1" offset="0%" stop-color="#f44503"/><stop id="eme80RlWpH260-fill-2" offset="31%" stop-color="#f96e03"/><stop id="eme80RlWpH260-fill-3" offset="59%" stop-color="#fc8c02"/><stop id="eme80RlWpH260-fill-4" offset="83%" stop-color="#fe9e02"/><stop id="eme80RlWpH260-fill-5" offset="100%" stop-color="#ffa502"/></linearGradient><linearGradient id="eme80RlWpH261-fill" x1="357.08" y1="221.33" x2="376.25" y2="177.6" spreadMethod="pad" gradientUnits="userSpaceOnUse" gradientTransform="translate(0 0)"><stop id="eme80RlWpH261-fill-0" offset="0%" stop-color="#ffa502"/><stop id="eme80RlWpH261-fill-1" offset="90%" stop-color="#f54e03"/><stop id="eme80RlWpH261-fill-2" offset="100%" stop-color="#f44403"/></linearGradient><linearGradient id="eme80RlWpH262-fill" x1="302.71" y1="132.41" x2="356.4" y2="206.73" spreadMethod="pad" gradientUnits="userSpaceOnUse" gradientTransform="translate(0 0)"><stop id="eme80RlWpH262-fill-0" offset="1%" stop-color="#df1d57"/><stop id="eme80RlWpH262-fill-1" offset="20%" stop-color="#db1d59"/><stop id="eme80RlWpH262-fill-2" offset="39%" stop-color="#cf1d61"/><stop id="eme80RlWpH262-fill-3" offset="59%" stop-color="#ba1c6d"/><stop id="eme80RlWpH262-fill-4" offset="79%" stop-color="#9e1c7d"/><stop id="eme80RlWpH262-fill-5" offset="99%" stop-color="#791b93"/><stop id="eme80RlWpH262-fill-6" offset="100%" stop-color="#771b94"/></linearGradient><linearGradient id="eme80RlWpH263-fill" x1="314.79" y1="172.87" x2="390.03" y2="203.02" spreadMethod="pad" gradientUnits="userSpaceOnUse" gradientTransform="translate(0 0)"><stop id="eme80RlWpH263-fill-0" offset="0%" stop-color="#f2f2f2"/><stop id="eme80RlWpH263-fill-1" offset="21%" stop-color="#f2f0ef"/><stop id="eme80RlWpH263-fill-2" offset="36%" stop-color="#f1eae6"/><stop id="eme80RlWpH263-fill-3" offset="48%" stop-color="#efe0d7"/><stop id="eme80RlWpH263-fill-4" offset="58%" stop-color="#ecd1c2"/><stop id="eme80RlWpH263-fill-5" offset="69%" stop-color="#e9bea7"/><stop id="eme80RlWpH263-fill-6" offset="78%" stop-color="#e5a785"/><stop id="eme80RlWpH263-fill-7" offset="87%" stop-color="#e08c5d"/><stop id="eme80RlWpH263-fill-8" offset="96%" stop-color="#da6d2f"/><stop id="eme80RlWpH263-fill-9" offset="100%" stop-color="#d75b15"/></linearGradient><linearGradient id="eme80RlWpH265-fill" x1="241.157162" y1="306.337393" x2="210.486857" y2="352.84069" spreadMethod="pad" gradientUnits="userSpaceOnUse" gradientTransform="translate(0 0)"><stop id="eme80RlWpH265-fill-0" offset="0%" stop-color="#df1d57"/><stop id="eme80RlWpH265-fill-1" offset="18%" stop-color="#da1d5a"/><stop id="eme80RlWpH265-fill-2" offset="38%" stop-color="#cc1d62"/><stop id="eme80RlWpH265-fill-3" offset="60%" stop-color="#b51c70"/><stop id="eme80RlWpH265-fill-4" offset="83%" stop-color="#941c83"/><stop id="eme80RlWpH265-fill-5" offset="100%" stop-color="#771b94"/></linearGradient></defs><rect width="1300" height="805.583" rx="0" ry="0" fill="url(#eme80RlWpH22-fill)"/><rect style="mix-blend-mode:darken" width="1300" height="805.583" rx="0" ry="0" fill="url(#eme80RlWpH23-fill)"/><g clip-path="url(#eme80RlWpH210)"><g><g id="eme80RlWpH26_ts" transform="translate(1423,1054.5) scale(1,1)"><circle style="mix-blend-mode:multiply" r="1289.52" transform="translate(0,0)" opacity="0.15" fill="url(#eme80RlWpH26-fill)"/></g><g id="eme80RlWpH27_ts" transform="translate(1423.000122,1054.500122) scale(1,1)"><circle style="mix-blend-mode:multiply" r="1050.27" transform="translate(-0.000122,-0.000122)" opacity="0.35" fill="url(#eme80RlWpH27-fill)"/></g><g id="eme80RlWpH28_ts" transform="translate(1422.999939,1054.499939) scale(1,1)"><circle style="mix-blend-mode:multiply" r="832.263" transform="translate(0.000061,0.000061)" opacity="0.35" fill="url(#eme80RlWpH28-fill)"/></g><g id="eme80RlWpH29_ts" transform="translate(1423,1054.5) scale(1,1)"><circle style="mix-blend-mode:multiply" r="619.255" transform="translate(0,0)" opacity="0.4" fill="url(#eme80RlWpH29-fill)"/></g></g><clipPath id="eme80RlWpH210"><rect width="1300" height="800" rx="0" ry="0" fill="none"/></clipPath></g><rect width="290" height="290" rx="34.4308" ry="34.4308" transform="translate(345.61 353.717)" filter="url(#eme80RlWpH212-filter)" fill="#180141"/><rect width="290" height="290" rx="34.4308" ry="34.4308" transform="translate(664.39 353.717)" filter="url(#eme80RlWpH213-filter)" fill="#180141"/><path d="M497.4712,247.9814h15.6533v42.9273h26.4048v12.4113h-42.0581Zm44.5063,27.6695c0-16.6021,13.044-28.7764,30.7525-28.7764s30.7529,12.1743,30.7529,28.7764-13.0444,28.7763-30.7529,28.7763-30.7525-12.1748-30.7525-28.7763Zm45.6944,0c0-9.5659-6.562-15.8111-14.9419-15.8111s-14.9414,6.2452-14.9414,15.8111s6.5615,15.811,14.9414,15.811s14.9419-6.2456,14.9419-15.811Zm61.1064-1.1861h13.835v22.9263c-6.4033,4.5855-15.1787,7.0361-23.2422,7.0361-17.6294,0-30.5156-11.9375-30.5156-28.7763s12.8862-28.7764,30.8315-28.7764c10.3565,0,18.7368,3.5576,24.1909,10.1192l-9.9609,9.0122c-3.328132-3.967514-8.261833-6.231033-13.44-6.1661-9.4863,0-15.811,6.2452-15.811,15.8111c0,9.3286,6.3247,15.811,15.6528,15.811c2.918959.022224,5.807004-.598575,8.459-1.8183Zm20.9453,1.1861c0-16.6021,13.045-28.7764,30.753-28.7764s30.7534,12.1743,30.7534,28.7764-13.044,28.7763-30.7529,28.7763-30.7535-12.1748-30.7535-28.7763Zm45.6944,0c0-9.5659-6.5616-15.8111-14.9414-15.8111s-14.9414,6.2452-14.9414,15.8111s6.5615,15.811,14.9414,15.811s14.9414-6.2456,14.9414-15.811ZM735.5742,298.34l5.1387-11.5419c5.463203,3.477408,11.786275,5.366016,18.2617,5.4545c6.4824,0,9.0127-1.8183,9.0127-4.5063c0-8.7749-31.4648-2.3716-31.4648-22.9258c0-9.8823,8.0644-17.9458,24.5078-17.9458c7.1943,0,14.625,1.66,20.08,4.8223l-4.8223,11.6211c-4.682598-2.66464-9.950993-4.131123-15.3369-4.2691-6.5616,0-8.9336,2.2139-8.9336,4.981c0,8.459,31.3857,2.1343,31.3857,22.5307c0,9.6446-8.0644,17.8667-24.5078,17.8667-9.0907-.0002-18.1034-2.4508-23.3212-6.0874Z" fill="#9334ec"/><path d="M343.8984,211.22l3.9214-8.8086c4.169388,2.654003,8.995042,4.095467,13.937,4.1631c4.9473,0,6.878-1.3877,6.878-3.4394c0-6.6973-24.0122-1.81-24.0122-17.4961c0-7.542,6.1538-13.6963,18.7031-13.6963c5.336785-.085706,10.608488,1.180352,15.3243,3.6803l-3.6807,8.8692c-3.573476-2.03396-7.594173-3.153404-11.7046-3.2588-5.0073,0-6.8173,1.69-6.8173,3.8018c0,6.455,23.9521,1.6289,23.9521,17.1943c0,7.3613-6.1538,13.6357-18.7031,13.6357-6.9381,0-13.8164-1.8701-17.798-4.6452Zm64.0137,2.4737c-2.437886,1.329279-5.189563,1.975366-7.9643,1.87-8.3863,0-13.273-4.1026-13.273-12.4893v-10.98h-4.7666v-8.5674h4.7666v-8.507h11.4634v8.5069h7.4809v8.5674h-7.4809v10.86c0,2.4131,1.3872,3.74,3.4389,3.74c1.242187.012343,2.460051-.344548,3.4991-1.0254Zm35.0532-16.833v18.16h-10.6792v-4.2236c-1.6289,3.1377-4.8867,4.7666-9.6533,4.7666-7.8432,0-12.187-4.4043-12.187-10.0752c0-6.0342,4.4043-9.7744,14.54-9.7744h6.5162c-.1807-3.3184-2.4131-5.1885-6.9385-5.1885-3.179773-.003577-6.280942.988068-8.8687,2.8359l-3.8613-7.7832c3.7407-2.4736,9.291-3.8008,14.4194-3.8008c10.6187-.0002,16.7124,4.7049,16.7124,15.0825Zm-11.4633,7.6621v-2.836h-4.9473c-3.68,0-5.0078,1.3281-5.0078,3.3184c0,1.9306,1.5688,3.3183,4.2837,3.3183c2.529063.14863,4.847588-1.405256,5.6714-3.801Zm41.268,9.1709c-2.43788,1.329293-5.189562,1.975381-7.9643,1.87-8.3863,0-13.273-4.1026-13.273-12.4893v-10.98h-4.7666v-8.5674h4.7666v-8.507h11.4634v8.5069h7.481v8.5674h-7.481v10.86c0,2.4131,1.3877,3.74,3.439,3.74c1.242158.01236,2.459995-.344534,3.499-1.0254Zm3.1372-41.087c0-3.4394,2.7749-6.0937,6.9986-6.0937s6.9985,2.4736,6.9985,5.9121c0,3.62-2.7754,6.2754-6.9985,6.2754s-6.9986-2.6556-6.9986-6.0941Zm1.2666,9.7139h11.4634v32.7h-11.4634Zm16.8325,16.29c0-9.835,7.7833-16.8331,18.7637-16.8331c7.4209,0,13.0923,3.3174,15.3247,8.9893l-8.8691,4.5254c-1.5684-3.0772-3.8613-4.4043-6.5156-4.4043-3.9825,0-7.12,2.7744-7.12,7.7227c0,5.0673,3.1372,7.8427,7.12,7.8427c2.6543,0,4.9472-1.3271,6.5156-4.4043l8.8691,4.5254c-2.2324,5.6709-7.9038,8.9893-15.3247,8.9893-10.98-.0002-18.7637-6.9992-18.7637-16.9537Zm90.439-16.29l-13.5146,32.7h-11.8252l-13.4541-32.7h11.7646l7.8438,19.97l8.2656-19.97Zm-.18,29.8643l3.439-7.8428c3.472969,1.982381,7.403886,3.022302,11.4028,3.0166c3.8614,0,5.1284-.8447,5.1284-2.2324c0-4.4043-19.3066.6035-19.3066-12.4893c0-6.1543,5.6714-10.8594,15.9282-10.8594c4.5855,0,9.6533.9649,12.9112,2.7745l-3.439,7.7832c-2.877991-1.599519-6.119535-2.430595-9.4121-2.4131-3.8613,0-5.249,1.0859-5.249,2.2929c0,4.5245,19.2465-.3623,19.2465,12.6094c0,6.0332-5.5507,10.7393-16.1694,10.7393-5.5505-.0003-11.2819-1.388-14.4797-3.3792Zm33.5454-3.4385c.065559-3.75174,3.125637-6.758813,6.87795-6.758813s6.812391,3.007073,6.87795,6.758813c-.032193,3.775706-3.102107,6.819557-6.87795,6.819557s-6.845757-3.043851-6.87795-6.819557ZM685.1421,196.86v18.16h-10.6792v-4.2236c-1.6289,3.1377-4.8867,4.7666-9.6533,4.7666-7.8433,0-12.187-4.4043-12.187-10.0752c0-6.0342,4.4043-9.7744,14.54-9.7744h6.5161c-.1807-3.3184-2.4131-5.1885-6.9385-5.1885-3.179743-.003583-6.280882.988064-8.8686,2.8359l-3.8613-7.7832c3.7407-2.4736,9.291-3.8008,14.4194-3.8008c10.6186.0005,16.7124,4.7056,16.7124,15.0832Zm-11.4634,7.6621v-2.836h-4.9473c-3.68,0-5.0078,1.3281-5.0078,3.3184c0,1.9306,1.5689,3.3183,4.2837,3.3183c2.528876.148725,4.847339-1.404834,5.6714-3.8003Zm53.5156-8.2051v18.7031h-11.4633v-16.833c0-4.7061-2.0513-6.6973-5.37-6.6973-3.68,0-6.5161,2.293-6.5161,7.7227v15.8076h-11.4631v-32.7h10.92v3.56c2.744347-2.7417,6.500259-4.226548,10.3775-4.1026c7.6625-.0002,13.515,4.4041,13.515,14.5399Zm5.9131-23.711c0-3.4394,2.7754-6.0937,6.999-6.0937s6.9991,2.4736,6.9991,5.9121c0,3.62-2.7754,6.2754-6.9991,6.2754s-6.999-2.6549-6.999-6.0934Zm1.2676,9.7139h11.4629v32.7h-11.4629Zm74.6914,13.9971v18.7031h-11.4629v-16.833c0-4.7061-1.9306-6.6973-4.9473-6.6973-3.3183,0-5.7324,2.2325-5.7324,7.3008v16.23h-11.4629v-16.833c0-4.7061-1.87-6.6973-4.9472-6.6973-3.3789,0-5.792,2.2325-5.792,7.3008v16.23h-11.4639v-32.7h10.9209v3.4385c2.54912-2.648762,6.100025-4.095186,9.7744-3.9815c4.4649,0,8.2657,1.6289,10.5586,5.128c2.786353-3.368425,6.97232-5.261039,11.3418-5.128c7.6016-.0008,13.2129,4.4035,13.2129,14.5393Zm37.8906.543v18.16h-10.6787v-4.2236c-1.63,3.1377-4.8877,4.7666-9.6533,4.7666-7.8438,0-12.1875-4.4043-12.1875-10.0752c0-6.0342,4.4043-9.7744,14.54-9.7744h6.5166c-.1816-3.3184-2.414-5.1885-6.9384-5.1885-3.17994-.003655-6.281291.987993-8.8692,2.8359l-3.8613-7.7832c3.7412-2.4736,9.291-3.8008,14.4189-3.8008c10.6192.0005,16.7129,4.7056,16.7129,15.0832Zm-11.4629,7.6621v-2.836h-4.9472c-3.6807,0-5.0078,1.3281-5.0078,3.3184c0,1.9306,1.5683,3.3183,4.2832,3.3183c2.528935.148599,4.847443-1.404881,5.6718-3.8003Zm41.2676,9.1709c-2.43804,1.329348-5.189897,1.975437-7.9648,1.87-8.3858,0-13.2725-4.1026-13.2725-12.4893v-10.98h-4.7666v-8.5674h4.7666v-8.5063h11.4639v8.5069h7.4805v8.5674h-7.4805v10.86c0,2.4131,1.3867,3.74,3.4385,3.74c1.242164.012402,2.460013-.344495,3.499-1.0254Zm36.6826-12.127h-23.77c.9649,3.3184,3.8008,5.249,8.0235,5.249c2.791465.097532,5.506369-.923311,7.542-2.8359l6.0332,6.2744c-3.1377,3.5-7.7227,5.31-13.9366,5.31-11.6445,0-19.1865-7.18-19.1865-16.9531c0-9.835,7.6631-16.8331,17.98-16.8331c9.6533,0,17.4961,6.1534,17.4961,16.9532-.001.8447-.1211,1.9306-.1817,2.8359Zm-23.9521-6.0332h13.3945c-.577266-3.246493-3.399834-5.611448-6.69725-5.611448s-6.119984,2.364955-6.69725,5.611448Zm64.1953-25.28v44.7676h-10.9209v-3.2578c-2.1719,2.5937-5.37,3.8008-9.5928,3.8008-8.93,0-16.1093-6.5156-16.1093-16.9531c0-10.378,7.18-16.8331,16.1093-16.8331c3.8008,0,6.878,1.086,9.05,3.378v-14.9023ZM942.4043,198.61c0-4.9483-2.9551-7.7227-6.8164-7.7227-3.9219,0-6.8789,2.7744-6.8789,7.7227c0,5.0068,2.957,7.8427,6.8789,7.8427c3.8613.0004,6.8164-2.8355,6.8164-7.8427Z"/><g transform="matrix(.55 0 0 0.55 323.981056 345.218756)"><g transform="matrix(.884191 0 0 0.884191 35.019205 27.128406)"><path d="M351.399319,204.061943c-.334587,22.391628-10.558377,108.625645-117.810505,108.928965c11.062208-21.087334,20.451971-74.634139,21.231971-81.514139C259.717634,186.368732,293.090179,145.272372,333.17,131.3c13.465891,22.040945,19.768513,46.978918,18.229319,72.761943Z" fill="url(#eme80RlWpH218-fill)" stroke-miterlimit="1"/><g><path d="M336.6,221.73c-8.502998,31.284517-36.905531,52.997761-69.325,52.997761s-60.822002-21.713244-69.325-52.997761Z" fill="url(#eme80RlWpH220-fill)" stroke-miterlimit="1"/><path d="M336.6,221.76c-19.940393,28.94831-56.79915,40.953487-89.963293,29.301726s-54.414393-44.07273-51.866707-79.131726Z" fill="url(#eme80RlWpH221-fill)" stroke-miterlimit="1"/><path d="M336.6,221.71c-28.715286,20.270324-67.448739,18.797159-94.541399-3.595729s-35.830952-60.156534-21.328601-92.174271Z" fill="url(#eme80RlWpH222-fill)" stroke-miterlimit="1"/></g><g transform="matrix(.963777-.266709 0.266709 0.963777-46.196013 101.335035)"><path d="M410.21,186.21c.005352,5.952882-.915666,11.870342-2.73,17.54-13.246445-12.459121-30.735693-19.433294-48.914274-19.92033q.21-3.87.201105-8.066544c.072199-15.988076-2.560842-31.783868-7.743519-46.908803L352.84,128.83c31.686194.005522,57.37,25.693806,57.37,57.38Z" fill="url(#eme80RlWpH224-fill)" stroke-miterlimit="1"/><path d="M385.69,189.53c-6.019786,17.211747-19.717776,30.542659-37.133869,35.942824c6.15-11.94.120247-43.771574.120247-43.771574s22.705174,1.089355,37.013622,7.82875Z" fill="url(#eme80RlWpH225-fill)" stroke-miterlimit="1"/><path d="M358.69,183.65l-.08,1.41c-.75,16.15-4,28.43-10.15,40.35-26.48-.15-53.85-18-53.85-48.14c0-26.59,25.84-48.7,56.57-48.41v0c5.182677,15.124935,7.792199,31.011924,7.72,47q0,3.92-.21,7.79Z" fill="url(#eme80RlWpH226-fill)" stroke-miterlimit="1"/><path d="M358.9,175.83q0,3.94-.21,7.82l-.08,1.41c-.75,16.15-3.91,28.5-10,40.42-1.29,0-2.7-.13-4-.22-14.55-1.74-27.94-14.2-32.45-31.81-5.6-21.85,4.61-43.35,22.8-48c7.206504-1.783318,14.817341-.850652,21.38,2.62c1.723808,9.152323,2.580933,18.446778,2.56,27.76Z" fill="url(#eme80RlWpH227-fill)" stroke-miterlimit="1"/><path d="M83.587,43.768c0,4.651-7.023,4.641-7.023,0c.032339-1.916248,1.594979-3.45274,3.5115-3.45274s3.479161,1.536492,3.5115,3.45274Z" transform="matrix(3.530342 0 0 3.530342 55.959452 23.729269)" fill="#333" stroke-miterlimit="1"/></g><path d="M242.5,303.82l-38.05,34.37c0,0,15.13,11.06,31.6-2c6.09-6,14.95-18.28,6.45-32.37Z" transform="matrix(.903148 0.42933-.42933 0.903148 155.597287-80.375559)" fill="url(#eme80RlWpH229-fill)" stroke-miterlimit="1"/></g><g transform="translate(-4.953304 152.550836)"><g><path d="M147,204.89c4.283544-.130635,8.540758.713969,12.45,2.47c3.227254,1.486736,5.934017,3.907843,7.77,6.95c1.833851,3.25694,2.740007,6.954191,2.62,10.69-.010672,2.480362-.381199,4.946051-1.1,7.32-.711122,2.42815-1.889876,4.69394-3.47,6.67-1.717161,2.088699-3.907783,3.737665-6.39,4.81-3.110602,1.29664-6.461365,1.917025-9.83,1.82h-8.41v18.84h-11.72v-59.57Zm2,29.28c1.536569.052727,3.063154-.266312,4.45-.93c1.103731-.550189,2.060225-1.355838,2.79-2.35c1.178335-1.642595,1.839875-3.599362,1.9-5.62-.021417-.80015-.115131-1.596726-.28-2.38-.221419-1.059365-.620376-2.073663-1.18-3-.655927-1.0837-1.587619-1.973984-2.7-2.58-1.512387-.776162-3.202039-1.141678-4.9-1.06h-8.41v18Z" fill="#f2f2f2" stroke-miterlimit="1"/><path d="M204,202.55h-.65l-26.84,61.86h11.49l4.85-11.64h19.75l4.59,11.64h13.59Zm-7,40.35l6-14.51l5.72,14.51Z" fill="#f2f2f2" stroke-miterlimit="1"/><path d="M280.27,242.78c1.813898-1.003315,3.427483-2.33215,4.76-3.92c1.615489-1.951449,2.82574-4.205372,3.56-6.63.717711-2.360233,1.084961-4.813062,1.09-7.28.046915-2.838572-.476775-5.657654-1.54-8.29-.996485-2.41531-2.528316-4.572867-4.48-6.31-2.135461-1.827613-4.628504-3.189932-7.32-4-3.221163-.994493-6.579241-1.473736-9.95-1.42h-18v59.52h11.72v-18.96h7.81l12.57,18.92h13.67Zm-20.19-26.57h8.41c1.697961-.081678,3.387613.283838,4.9,1.06c1.112381.606016,2.044073,1.4963,2.7,2.58.559624.926337.958581,1.940635,1.18,3c.168712.809656.262442,1.633139.28,2.46-.013928.946133-.162072,1.885501-.44,2.79-.317783,1.033596-.81171,2.004536-1.46,2.87-.738845.965254-1.694651,1.742916-2.79,2.27-1.395527.633772-2.918062.938279-4.45.89h-8.33Z" fill="#f2f2f2" stroke-miterlimit="1"/><path d="M344.64,242.79c1.813964-1.007424,3.427412-2.339535,4.76-3.93c1.615489-1.951449,2.82574-4.205372,3.56-6.63.717711-2.360233,1.084961-4.813062,1.09-7.28.046915-2.838572-.476775-5.657654-1.54-8.29-.996485-2.41531-2.528316-4.572867-4.48-6.31-2.135461-1.827613-4.628504-3.189932-7.32-4-3.221456-.993184-6.579325-1.472398-9.95-1.42h-18v59.52h11.72v-18.96h7.81l12.57,18.92h13.64Zm-20.19-26.58h8.41c1.697961-.081678,3.387613.283838,4.9,1.06c1.112381.606016,2.044073,1.4963,2.7,2.58.559624.926337.958581,1.940635,1.18,3c.168712.809656.262442,1.633139.28,2.46-.01285.946994-.164462,1.886988-.45,2.79-.312749,1.04675-.810624,2.028954-1.47,2.9-.736652.967381-1.693015,1.745497-2.79,2.27-1.395527.633772-2.918062.938279-4.45.89h-8.33Z" fill="#f2f2f2" stroke-miterlimit="1"/><path d="M371.44,234.73c-.019437-3.998733.776785-7.959429,2.34-11.64c3.109867-7.344866,8.913795-13.22036,16.22-16.42c7.511523-3.226453,16.018477-3.226453,23.53,0c3.633016,1.598624,6.936124,3.860608,9.74,6.67c2.809213,2.799394,5.059333,6.108394,6.63,9.75c1.593234,3.672914,2.407053,7.636452,2.39,11.64.028397,4.059565-.785405,8.080905-2.39,11.81-1.557299,3.622432-3.809793,6.904347-6.63,9.66-2.807702,2.764046-6.112316,4.972777-9.74,6.51-7.530288,3.133893-15.999712,3.133893-23.53,0-7.291069-3.08058-13.094913-8.880837-16.18-16.17-1.587762-3.733993-2.397586-7.752491-2.38-11.81Zm12.13,0c-.052464,5.021743,1.877046,9.861687,5.37,13.47c3.458932,3.58975,8.245263,5.594003,13.23,5.54c2.433383.018647,4.843057-.478966,7.07-1.46c2.162803-.949259,4.104065-2.338793,5.7-4.08c1.632189-1.770128,2.920784-3.828488,3.8-6.07c2.854351-7.170034,1.328813-15.342557-3.92-21-1.63266-1.765309-3.614629-3.171757-5.82-4.13-6.928249-3.035738-15.016242-1.39974-20.22,4.09-1.677198,1.76207-2.995076,3.833992-3.88,6.1-.919473,2.405697-1.370898,4.964901-1.33,7.54Z" fill="#f2f2f2" stroke-miterlimit="1"/><path d="M446.8,204.89h40.11v11.32h-14.47v48.2h-11.73v-48.2h-13.91Z" fill="#f2f2f2" stroke-miterlimit="1"/></g><g><path d="M172.93,284.76h11.71v1.24h-10.39v7.54h9.35v1.25h-9.35v7.68h10.75v1.25h-12.07Z" transform="matrix(.851054 0 0 0.851054 26.65612 43.825872)" fill="#f2f2f2" stroke-miterlimit="1"/><path d="M208.57,304.2l-15-16.87.35-.27v16.68h-1.28v-19.38h.08l15,17-.35.11v-16.71h1.25v19.44Z" transform="matrix(.851054 0 0 0.851054 29.883038 43.831829)" fill="#f2f2f2" stroke-miterlimit="1"/><path d="M215.81,284.76h12.43v1.24h-5.58v17.72h-1.31v-17.72h-5.54Z" transform="matrix(.851054 0 0 0.851054 33.069735 43.825872)" fill="#f2f2f2" stroke-miterlimit="1"/><path d="M235.43,284.76h11.71v1.24h-10.4v7.54h9.36v1.25h-9.36v7.68h10.78v1.25h-12.09Z" transform="matrix(.851054 0 0 0.851054 35.966735 43.825872)" fill="#f2f2f2" stroke-miterlimit="1"/><path d="M259.52,284.76c.71765.004163,1.431205.108503,2.12.31.69785.215499,1.351491.554173,1.93,1c.583775.446963,1.061793,1.017171,1.4,1.67.377989.756525.563471,1.594628.54,2.44-.000549.702276-.108462,1.400341-.32,2.07-.21456.669386-.572934,1.283742-1.05,1.8-.516096.567788-1.155943,1.00918-1.87,1.29-.90255.344691-1.86427.507809-2.83.48h-2.94v8h-1.31v-19Zm-.16,9.76c.802315.026832,1.601743-.109241,2.35-.4c1.085123-.423645,1.910019-1.32992,2.23-2.45.147961-.479586.225437-.978129.23-1.48.005597-.548779-.09985-1.093022-.31-1.6-.202561-.499548-.505475-.952218-.89-1.33-.411752-.390116-.893545-.698871-1.42-.91-.586741-.226102-1.211254-.338107-1.84-.33h-3.21v8.5Zm2.72.59l5.27,8.63h-1.52l-5.29-8.6Z" transform="matrix(.851054 0 0 0.851054 38.91512 43.833322)" fill="#f2f2f2" stroke-miterlimit="1"/><path d="M273.13,284.76h12.43v1.24h-5.56v17.72h-1.31v-17.72h-5.53Z" transform="matrix(.851054 0 0 0.851054 41.607321 43.825872)" fill="#f2f2f2" stroke-miterlimit="1"/><path d="M289.67,303.74l8-19.8h.11l8,19.8h-1.47l-7-17.72.91-.51L291,303.74Zm3.88-7.51h8.45l.37,1.23h-9.11Z" transform="matrix(.851054 0 0 0.851054 44.344949 43.766292)" fill="#f2f2f2" stroke-miterlimit="1"/><path d="M312.88,284.76h1.31v19h-1.31Z" transform="matrix(.851054 0 0 0.851054 46.699785 43.828851)" fill="#f2f2f2" stroke-miterlimit="1"/><path d="M338.78,304.2l-15-16.87.35-.27v16.68h-1.23v-19.38h.1l15,17-.35.11v-16.71h1.25v19.44Z" transform="matrix(.851054 0 0 0.851054 49.286231 43.831829)" fill="#f2f2f2" stroke-miterlimit="1"/><path d="M347.55,303.74v-19.4v0l9.36,13.28-.56-.08l9.33-13.2v0v19.4h-1.28v-16.38l.11.64-7.91,11.15h-.06l-8-11.15.21-.59v16.33Z" transform="matrix(.851054 0 0 0.851054 53.116374 43.796081)" fill="#f2f2f2" stroke-miterlimit="1"/><path d="M374.44,284.76h11.71v1.24h-10.4v7.54h9.36v1.25h-9.36v7.68h10.77v1.25h-12.08Z" transform="matrix(.851054 0 0 0.851054 56.670973 43.825872)" fill="#f2f2f2" stroke-miterlimit="1"/><path d="M410.07,304.2l-15-16.87.35-.27v16.68h-1.29v-19.38h.08l15,17-.35.11v-16.71h1.26v19.44Z" transform="matrix(.851054 0 0 0.851054 59.89491 43.831829)" fill="#f2f2f2" stroke-miterlimit="1"/><path d="M417.32,284.76h12.43v1.24h-5.59v17.72h-1.31v-17.72h-5.53Z" transform="matrix(.851054 0 0 0.851054 63.083845 43.825872)" fill="#f2f2f2" stroke-miterlimit="1"/></g></g></g><g transform="matrix(.55 0 0 0.55 642.761057 345.218756)"><g id="eme80RlWpH253_ts" transform="translate(302.387596,234.251274) scale(0.65,0.65)"><g transform="translate(-302.387596,-234.251274)"><path d="M351.399319,204.061943c-.334587,22.391628-10.558377,108.625645-117.810505,108.928965c11.062208-21.087334,20.451971-74.634139,21.231971-81.514139C259.717634,186.368732,293.090179,145.272372,333.17,131.3c13.465891,22.040945,19.768513,46.978918,18.229319,72.761943Z" fill="url(#eme80RlWpH254-fill)" stroke-miterlimit="1"/><g><g id="eme80RlWpH256_tr" transform="translate(331.399262,226.385874) rotate(0)"><path d="M336.6,221.73c-8.502998,31.284517-36.905531,52.997761-69.325,52.997761s-60.822002-21.713244-69.325-52.997761Z" transform="translate(-331.399262,-226.385874)" fill="url(#eme80RlWpH256-fill)" stroke-miterlimit="1"/></g><g id="eme80RlWpH257_tr" transform="translate(330.162997,222.471037) rotate(0)"><path d="M336.6,221.76c-19.940393,28.94831-56.79915,40.953487-89.963293,29.301726s-54.414393-44.07273-51.866707-79.131726Z" transform="translate(-330.162997,-222.471037)" fill="url(#eme80RlWpH257-fill)" stroke-miterlimit="1"/></g><g id="eme80RlWpH258_tr" transform="translate(326.995069,218.324399) rotate(0)"><path d="M336.6,221.71c-28.715286,20.270324-67.448739,18.797159-94.541399-3.595729s-35.830952-60.156534-21.328601-92.174271Z" transform="translate(-326.995069,-218.324399)" fill="url(#eme80RlWpH258-fill)" stroke-miterlimit="1"/></g></g><g id="eme80RlWpH259_tr" transform="translate(349.966333,220.737874) rotate(-15.468541)"><g transform="translate(-349.966332,-220.737874)"><path d="M410.21,186.21c.005352,5.952882-.915666,11.870342-2.73,17.54-13.246445-12.459121-30.735693-19.433294-48.914274-19.92033q.21-3.87.201105-8.066544c.072199-15.988076-2.560842-31.783868-7.743519-46.908803L352.84,128.83c31.686194.005522,57.37,25.693806,57.37,57.38Z" fill="url(#eme80RlWpH260-fill)" stroke-miterlimit="1"/><g id="eme80RlWpH261_to" transform="translate(348.654347,224.664516)"><g id="eme80RlWpH261_tr" transform="rotate(0)"><path d="M385.69,189.53c-6.019786,17.211747-19.717776,30.542659-37.133869,35.942824c6.15-11.94.120247-43.771574.120247-43.771574s22.705174,1.089355,37.013622,7.82875Z" transform="translate(-348.654347,-224.664516)" fill="url(#eme80RlWpH261-fill)" stroke-miterlimit="1"/></g></g><path d="M358.69,183.65l-.08,1.41c-.75,16.15-4,28.43-10.15,40.35-26.48-.15-53.85-18-53.85-48.14c0-26.59,25.84-48.7,56.57-48.41v0c5.182677,15.124935,7.792199,31.011924,7.72,47q0,3.92-.21,7.79Z" fill="url(#eme80RlWpH262-fill)" stroke-miterlimit="1"/><path d="M358.9,175.83q0,3.94-.21,7.82l-.08,1.41c-.75,16.15-3.91,28.5-10,40.42-1.29,0-2.7-.13-4-.22-14.55-1.74-27.94-14.2-32.45-31.81-5.6-21.85,4.61-43.35,22.8-48c7.206504-1.783318,14.817341-.850652,21.38,2.62c1.723808,9.152323,2.580933,18.446778,2.56,27.76Z" fill="url(#eme80RlWpH263-fill)" stroke-miterlimit="1"/><path id="eme80RlWpH264" d="M83.587,43.768c0,4.651-7.023,4.641-7.023,0c.032339-1.916248,1.594979-3.45274,3.5115-3.45274s3.479161,1.536492,3.5115,3.45274Z" transform="matrix(3.530342 0 0 3.530342 55.959452 23.729269)" fill="#333" stroke-miterlimit="1"/></g></g><g id="eme80RlWpH265_tr" transform="translate(243.253967,299.297643) rotate(25.425032)"><path d="M242.5,303.82l-38.05,34.37c0,0,15.13,11.06,31.6-2c6.09-6,14.95-18.28,6.45-32.37Z" transform="translate(-242.17194,-305.2674)" fill="url(#eme80RlWpH265-fill)" stroke-miterlimit="1"/></g></g></g><g transform="translate(-4.953304 152.550836)"><g><g id="eme80RlWpH268_to" transform="translate(149.385269,234.668442)"><path d="M147,204.89c4.283544-.130635,8.540758.713969,12.45,2.47c3.227254,1.486736,5.934017,3.907843,7.77,6.95c1.833851,3.25694,2.740007,6.954191,2.62,10.69-.010672,2.480362-.381199,4.946051-1.1,7.32-.711122,2.42815-1.889876,4.69394-3.47,6.67-1.717161,2.088699-3.907783,3.737665-6.39,4.81-3.110602,1.29664-6.461365,1.917025-9.83,1.82h-8.41v18.84h-11.72v-59.57Zm2,29.28c1.536569.052727,3.063154-.266312,4.45-.93c1.103731-.550189,2.060225-1.355838,2.79-2.35c1.178335-1.642595,1.839875-3.599362,1.9-5.62-.021417-.80015-.115131-1.596726-.28-2.38-.221419-1.059365-.620376-2.073663-1.18-3-.655927-1.0837-1.587619-1.973984-2.7-2.58-1.512387-.776162-3.202039-1.141678-4.9-1.06h-8.41v18Z" transform="translate(-149.385269,-234.668442)" fill="#f2f2f2" stroke-miterlimit="1"/></g><g id="eme80RlWpH269_to" transform="translate(203.645004,233.480003)"><path d="M204,202.55h-.65l-26.84,61.86h11.49l4.85-11.64h19.75l4.59,11.64h13.59Zm-7,40.35l6-14.51l5.72,14.51Z" transform="translate(-203.645004,-233.480003)" fill="#f2f2f2" stroke-miterlimit="1"/></g><g id="eme80RlWpH270_to" transform="translate(271.274963,234.687981)"><path d="M280.27,242.78c1.813898-1.003315,3.427483-2.33215,4.76-3.92c1.615489-1.951449,2.82574-4.205372,3.56-6.63.717711-2.360233,1.084961-4.813062,1.09-7.28.046915-2.838572-.476775-5.657654-1.54-8.29-.996485-2.41531-2.528316-4.572867-4.48-6.31-2.135461-1.827613-4.628504-3.189932-7.32-4-3.221163-.994493-6.579241-1.473736-9.95-1.42h-18v59.52h11.72v-18.96h7.81l12.57,18.92h13.67Zm-20.19-26.57h8.41c1.697961-.081678,3.387613.283838,4.9,1.06c1.112381.606016,2.044073,1.4963,2.7,2.58.559624.926337.958581,1.940635,1.18,3c.168712.809656.262442,1.633139.28,2.46-.013928.946133-.162072,1.885501-.44,2.79-.317783,1.033596-.81171,2.004536-1.46,2.87-.738845.965254-1.694651,1.742916-2.79,2.27-1.395527.633772-2.918062.938279-4.45.89h-8.33Z" transform="translate(-271.274963,-234.687981)" fill="#f2f2f2" stroke-miterlimit="1"/></g><g id="eme80RlWpH271_to" transform="translate(335.62999,234.688072)"><path d="M344.64,242.79c1.813964-1.007424,3.427412-2.339535,4.76-3.93c1.615489-1.951449,2.82574-4.205372,3.56-6.63.717711-2.360233,1.084961-4.813062,1.09-7.28.046915-2.838572-.476775-5.657654-1.54-8.29-.996485-2.41531-2.528316-4.572867-4.48-6.31-2.135461-1.827613-4.628504-3.189932-7.32-4-3.221456-.993184-6.579325-1.472398-9.95-1.42h-18v59.52h11.72v-18.96h7.81l12.57,18.92h13.64Zm-20.19-26.58h8.41c1.697961-.081678,3.387613.283838,4.9,1.06c1.112381.606016,2.044073,1.4963,2.7,2.58.559624.926337.958581,1.940635,1.18,3c.168712.809656.262442,1.633139.28,2.46-.01285.946994-.164462,1.886988-.45,2.79-.312749,1.04675-.810624,2.028954-1.47,2.9-.736652.967381-1.693015,1.745497-2.79,2.27-1.395527.633772-2.918062.938279-4.45.89h-8.33Z" transform="translate(-335.62999,-234.688072)" fill="#f2f2f2" stroke-miterlimit="1"/></g><g id="eme80RlWpH272_to" transform="translate(401.865189,234.655281)"><path d="M371.44,234.73c-.019437-3.998733.776785-7.959429,2.34-11.64c3.109867-7.344866,8.913795-13.22036,16.22-16.42c7.511523-3.226453,16.018477-3.226453,23.53,0c3.633016,1.598624,6.936124,3.860608,9.74,6.67c2.809213,2.799394,5.059333,6.108394,6.63,9.75c1.593234,3.672914,2.407053,7.636452,2.39,11.64.028397,4.059565-.785405,8.080905-2.39,11.81-1.557299,3.622432-3.809793,6.904347-6.63,9.66-2.807702,2.764046-6.112316,4.972777-9.74,6.51-7.530288,3.133893-15.999712,3.133893-23.53,0-7.291069-3.08058-13.094913-8.880837-16.18-16.17-1.587762-3.733993-2.397586-7.752491-2.38-11.81Zm12.13,0c-.052464,5.021743,1.877046,9.861687,5.37,13.47c3.458932,3.58975,8.245263,5.594003,13.23,5.54c2.433383.018647,4.843057-.478966,7.07-1.46c2.162803-.949259,4.104065-2.338793,5.7-4.08c1.632189-1.770128,2.920784-3.828488,3.8-6.07c2.854351-7.170034,1.328813-15.342557-3.92-21-1.63266-1.765309-3.614629-3.171757-5.82-4.13-6.928249-3.035738-15.016242-1.39974-20.22,4.09-1.677198,1.76207-2.995076,3.833992-3.88,6.1-.919473,2.405697-1.370898,4.964901-1.33,7.54Z" transform="translate(-401.865189,-234.655281)" fill="#f2f2f2" stroke-miterlimit="1"/></g><g id="eme80RlWpH273_to" transform="translate(466.85498,234.650002)"><path d="M446.8,204.89h40.11v11.32h-14.47v48.2h-11.73v-48.2h-13.91Z" transform="translate(-466.85498,-234.650002)" fill="#f2f2f2" stroke-miterlimit="1"/></g></g><g transform="translate(3.626705 0)" mask="url(#eme80RlWpH289)"><g><path d="M172.93,284.76h11.71v1.24h-10.39v7.54h9.35v1.25h-9.35v7.68h10.75v1.25h-12.07Z" transform="matrix(.851054 0 0 0.851054 26.65612 43.825872)" fill="#f2f2f2" stroke-miterlimit="1"/><path d="M208.57,304.2l-15-16.87.35-.27v16.68h-1.28v-19.38h.08l15,17-.35.11v-16.71h1.25v19.44Z" transform="matrix(.851054 0 0 0.851054 29.883038 43.831829)" fill="#f2f2f2" stroke-miterlimit="1"/><path d="M215.81,284.76h12.43v1.24h-5.58v17.72h-1.31v-17.72h-5.54Z" transform="matrix(.851054 0 0 0.851054 33.069735 43.825872)" fill="#f2f2f2" stroke-miterlimit="1"/><path d="M235.43,284.76h11.71v1.24h-10.4v7.54h9.36v1.25h-9.36v7.68h10.78v1.25h-12.09Z" transform="matrix(.851054 0 0 0.851054 35.966735 43.825872)" fill="#f2f2f2" stroke-miterlimit="1"/><path d="M259.52,284.76c.71765.004163,1.431205.108503,2.12.31.69785.215499,1.351491.554173,1.93,1c.583775.446963,1.061793,1.017171,1.4,1.67.377989.756525.563471,1.594628.54,2.44-.000549.702276-.108462,1.400341-.32,2.07-.21456.669386-.572934,1.283742-1.05,1.8-.516096.567788-1.155943,1.00918-1.87,1.29-.90255.344691-1.86427.507809-2.83.48h-2.94v8h-1.31v-19Zm-.16,9.76c.802315.026832,1.601743-.109241,2.35-.4c1.085123-.423645,1.910019-1.32992,2.23-2.45.147961-.479586.225437-.978129.23-1.48.005597-.548779-.09985-1.093022-.31-1.6-.202561-.499548-.505475-.952218-.89-1.33-.411752-.390116-.893545-.698871-1.42-.91-.586741-.226102-1.211254-.338107-1.84-.33h-3.21v8.5Zm2.72.59l5.27,8.63h-1.52l-5.29-8.6Z" transform="matrix(.851054 0 0 0.851054 38.91512 43.833322)" fill="#f2f2f2" stroke-miterlimit="1"/><path d="M273.13,284.76h12.43v1.24h-5.56v17.72h-1.31v-17.72h-5.53Z" transform="matrix(.851054 0 0 0.851054 41.607321 43.825872)" fill="#f2f2f2" stroke-miterlimit="1"/><path d="M289.67,303.74l8-19.8h.11l8,19.8h-1.47l-7-17.72.91-.51L291,303.74Zm3.88-7.51h8.45l.37,1.23h-9.11Z" transform="matrix(.851054 0 0 0.851054 44.344949 43.766292)" fill="#f2f2f2" stroke-miterlimit="1"/><path d="M312.88,284.76h1.31v19h-1.31Z" transform="matrix(.851054 0 0 0.851054 46.699785 43.828851)" fill="#f2f2f2" stroke-miterlimit="1"/><path d="M338.78,304.2l-15-16.87.35-.27v16.68h-1.23v-19.38h.1l15,17-.35.11v-16.71h1.25v19.44Z" transform="matrix(.851054 0 0 0.851054 49.286231 43.831829)" fill="#f2f2f2" stroke-miterlimit="1"/><path d="M347.55,303.74v-19.4v0l9.36,13.28-.56-.08l9.33-13.2v0v19.4h-1.28v-16.38l.11.64-7.91,11.15h-.06l-8-11.15.21-.59v16.33Z" transform="matrix(.851054 0 0 0.851054 53.116374 43.796081)" fill="#f2f2f2" stroke-miterlimit="1"/><path d="M374.44,284.76h11.71v1.24h-10.4v7.54h9.36v1.25h-9.36v7.68h10.77v1.25h-12.08Z" transform="matrix(.851054 0 0 0.851054 56.670973 43.825872)" fill="#f2f2f2" stroke-miterlimit="1"/><path d="M410.07,304.2l-15-16.87.35-.27v16.68h-1.29v-19.38h.08l15,17-.35.11v-16.71h1.26v19.44Z" transform="matrix(.851054 0 0 0.851054 59.89491 43.831829)" fill="#f2f2f2" stroke-miterlimit="1"/><path d="M417.32,284.76h12.43v1.24h-5.59v17.72h-1.31v-17.72h-5.53Z" transform="matrix(.851054 0 0 0.851054 63.083845 43.825872)" fill="#f2f2f2" stroke-miterlimit="1"/></g><mask id="eme80RlWpH289" mask-type="alpha" x="-150%" y="-150%" height="400%" width="400%"><g id="eme80RlWpH290_to" transform="translate(22.968363,292.993303)"><rect width="263.980511" height="25.261293" rx="0" ry="0" transform="translate(-131.990256,-12.630646)" fill="#d2dbed" stroke-width="0" stroke-miterlimit="1"/></g></mask></g></g></g></svg>
